<?xml version="1.0" encoding="utf-8"?>
<!-- Generator: Adobe Illustrator 21.1.0, SVG Export Plug-In . SVG Version: 6.00 Build 0)  -->
<svg version="1.1" id="Layer_1" xmlns="http://www.w3.org/2000/svg" xmlns:xlink="http://www.w3.org/1999/xlink" x="0px" y="0px"
	    width="110"
   height="100" viewBox="0 0 590.6 189.9" style="enable-background:new 0 0 590.6 189.9;" xml:space="preserve">
<g>
	<g>
		<path d="M114.2,103.9v-1.5h8.3v-93h-8.3V7.8h39.8c22.1,0,34,10.5,34,25.1c0,14.6-11.1,23.8-33.9,23.8h-16.7v45.6h12.8v1.5H114.2z
			 M137.6,55.2h13.1c15,0,21.6-6.1,21.6-22.8c0-13-6-23.1-20.4-23.1h-14.3V55.2z"/>
		<path d="M246.8,5.6c21,0,40,19.7,40,50.2c0,30.5-19,50.2-40,50.2c-20.9,0-40-19.7-40-50.2C206.9,25.3,225.9,5.6,246.8,5.6
			 M246.8,104.6c15.4,0,22.8-12.4,22.8-48.7c0-36.3-7.3-48.7-22.8-48.7c-15.4,0-22.8,12.4-22.8,48.7
			C224.1,92.2,231.4,104.6,246.8,104.6"/>
		<path d="M331.9,102.4h20.5c9.2,0,11.8-3.2,20.1-37.1h3.1v38.6h-67v-1.5h8.3v-93h-8.3V7.8h37.2v1.5h-13.9V102.4z"/>
		<path d="M439,5.6c20.9,0,40,19.7,40,50.2c0,30.5-19,50.2-40,50.2c-21,0-40-19.7-40-50.2C399,25.3,418,5.6,439,5.6 M439,104.6
			c15.4,0,22.8-12.4,22.8-48.7c0-36.3-7.4-48.7-22.8-48.7c-15.4,0-22.8,12.4-22.8,48.7C416.2,92.2,423.6,104.6,439,104.6"/>
	</g>
	<g>
		<path d="M16,143.6h5.7c6.8,0,9,4.4,9,8.5c0,5.8-3.6,9.2-11,9.2H16V143.6z M20.8,183.1v-1.3H16v-19.4h0.3L32,183.1h9.8v-1.3h-3
			l-14.7-19.4c8.9-0.5,13.6-4.5,13.6-10.2c0-5.1-3.7-9.8-14-9.8h-18v1.3h3.7v38.1H5.6v1.3H20.8z"/>
		<path d="M71.3,148.2h0.1l5.9,17.2H65.1L71.3,148.2z M65.2,183.1v-1.3h-5.9l5.4-15.1h13l5.1,15.1h-4.6v1.3h13.7v-1.3h-2.5
			l-13.6-39.9h-4l-14.3,39.9h-3.6v1.3H65.2z"/>
		<path d="M118.6,181.8h9.1c4.1,0,5.3-0.7,9-15.1h1.4v16.4h-29.9v-1.3h3.7v-38.1h-3.7v-1.3h16.6v1.3h-6.2V181.8z"/>
		<path d="M168,143.6h6.4c6.4,0,9.1,3.8,9.1,9.3c0,7-3,9-9.7,9H168V143.6z M173.7,183.1v-1.3H168v-18.5h7.4
			c10.2,0,15.1-4.1,15.1-10.3c0-6.2-5.3-10.6-15.2-10.6h-17.8v1.3h3.7v38.1h-3.7v1.3H173.7z"/>
		<polygon points="217.5,162.6 217.5,181.8 221.6,181.8 221.6,183.1 207.1,183.1 207.1,181.8 210.8,181.8 210.8,143.6 207.1,143.6 
			207.1,142.4 221.6,142.4 221.6,143.6 217.5,143.6 217.5,161.3 233.9,161.3 233.9,143.6 229.8,143.6 229.8,142.4 244.3,142.4 
			244.3,143.6 240.6,143.6 240.6,181.8 244.3,181.8 244.3,183.1 229.8,183.1 229.8,181.8 233.9,181.8 233.9,162.6 		"/>
		<path d="M311,181.8h9.2c4.1,0,5.2-0.7,9-15.1h1.4v16.4h-29.9v-1.3h3.7v-38.1h-3.7v-1.3h16.6v1.3H311V181.8z"/>
		<path d="M362.7,148.2h0.1l5.9,17.2h-12.2L362.7,148.2z M356.6,183.1v-1.3h-5.9l5.4-15.1h13.1l5.1,15.1h-4.6v1.3h13.7v-1.3h-2.5
			l-13.6-39.9h-4L349,181.8h-3.6v1.3H356.6z"/>
		<path d="M413.7,142.4v1.3h-4.5v29.5c0,7.2,4.3,9.5,8.2,9.5c5.9,0,10-3.8,10-9.9v-29.1h-5.6v-1.3h11v1.3h-3.7v29.2
			c0,6.8-4.8,11.1-12,11.1c-10,0-14.6-4-14.6-12.1v-28.2h-3.7v-1.3H413.7z"/>
		<path d="M460.6,143.6h5.6c6.8,0,9,4.4,9,8.5c0,5.8-3.6,9.2-11,9.2h-3.7V143.6z M465.3,183.1v-1.3h-4.7v-19.4h0.3l15.7,20.7h9.8
			v-1.3h-3l-14.7-19.4c8.9-0.5,13.6-4.5,13.6-10.2c0-5.1-3.6-9.8-14.1-9.8h-18v1.3h3.7v38.1h-3.7v1.3H465.3z"/>
		<path d="M500.9,183.1v-1.3h3.7v-38.1h-3.7v-1.3h31.4v13.1h-1.4c-3.3-11-4.3-11.8-7.4-11.8h-12.3v17.7h4.8c3.1,0,4.6-1.8,5.8-8.1
			h1.4v17.5h-1.4c-1.3-6.3-2.7-8.1-5.8-8.1h-4.8v19.2h10.9c4.4,0,5.7-1.6,9.4-13.8h1.4v15.1H500.9z"/>
		<polygon points="557.5,144.8 557.4,144.8 557.4,181.8 562.6,181.8 562.6,183.1 551.6,183.1 551.6,181.8 555.6,181.8 555.6,143.6 
			551.6,143.6 551.6,142.4 563.4,142.4 581.6,171.8 581.7,171.8 581.7,143.6 576.8,143.6 576.8,142.4 587.6,142.4 587.6,143.6 
			583.5,143.6 583.5,183.1 581.4,183.1 		"/>
	</g>
</g>
</svg>
