<?xml version="1.0" encoding="utf-8"?>
<!-- Generator: Adobe Illustrator 27.3.1, SVG Export Plug-In . SVG Version: 6.00 Build 0)  -->
<svg version="1.1" xmlns="http://www.w3.org/2000/svg" xmlns:xlink="http://www.w3.org/1999/xlink" x="0px" y="0px"
	    width="110"
   height="100" viewBox="0 0 2500 1258.7" style="enable-background:new 0 0 2500 1258.7;" xml:space="preserve">
<g id="Livello_1">
</g>
<g id="Layer_1">
	<g>
		<path d="M1215.7,697.2c-38.9,0-71.2,154.3-103,152.8c-26.7-1.3-4.4-106.5-45.4-106.7c-25.2-0.2-32.7,42-44.1,78.2
			c-0.7,2.1-19.2,74.9-47.4,74.9c-18,0-33.7-14.4-33.7-56.9c0-19.9-1-49.5-24.7-54.4c-41.1-8.5-31.7,33.8-67.8,27
			c-97.6-18.4-171.5,182-112.1,208.9c71.2,32.2,123.1-94.1,144.4-90.7c16.2,2.6,5.7,57.1,56.8,53.6c41.6-2.8,74.5-88.8,90.7-87.8
			c14.4,0.9,1.9,51.8,37.8,53.7c42.1,2.2,59.4-67.6,78.6-67.9c4.8-0.1,6.9,3.5,6.5,20.7c-0.5,23.3-3.7,319.3-4.1,328.9
			c-0.9,18.2,7.9,19.7,11.9,19.7c2.7,0,43.1-0.8,50.9-1.2c7.8-0.3,9.1-7.6,9-12.1c0-1.8,5.6-430.8,6-523.6
			C1225.8,697.2,1218.7,697.2,1215.7,697.2z M869.2,873.8c-9.7,35-49.3,92.5-67.8,94.3c-5.5,0.5-13.5-2.4-13.2-15
			c0.7-29.6,46.8-96.5,65.9-101.6C867.1,847.9,872.8,860.6,869.2,873.8z"/>
		<path d="M2431.3,506.4c-75.9,47.9-61.2-129.3-107.4-129.3c-50.3,0-65,105-83,106.8c-22,2.2,8.2-77-35.3-75.2
			c-48,2-74.8,175.9-109.6,162.4c-35.7-13.8-10.1-105.7-50.3-112.4c-20.7-3.5-25,13.1-37.4,21.1c-18.5,12-51.7-8.9-103.9,51.9
			c-59,68.7-77,179.7-32,187.2c60.6,10.2,115.7-93.2,129.7-106.5c19.5-18.5,8.6,53.5,61.2,54.6c55.5,1.1,72.2-90.5,88.4-89.6
			c13.9,0.8-2.2,48,24.2,51.4c57.3,7.3,88.7-142.8,112.3-139.5c23.6,3.3,14.7,92.9,71.5,98.5c48.2,4.8,81.2-61,85.7-70.7
			C2449.9,507.1,2441.9,499.7,2431.3,506.4z M1999.7,553.7c-11,31.2-42.7,81.3-62.2,84.8c-6.7,1.2-14.8-5.4-14.3-16.9
			c1.2-26.8,46.2-83.8,64.4-88C2000.1,530.7,2004.2,540.9,1999.7,553.7z"/>
		<path d="M896.9,1129.6c13.5,6.6,32.3,18.7,22.7,40.6c-6.9,15.6-13.4,27.8-14.8,30.2c-8.4,14.3-28.6,22.8-52.7,11.4
			c-38.7-18.3-246.2-117.4-252.8-120.4c-7.3-3.4-19.2-0.9-19.2,19.4c0,20.6,0,48.9,0,55.3c0,7.5,1,25.9-14.3,36.7
			c-16.2,11.5-42.8,27.3-47.5,29.7c-6.7,3.4-23.8,16.7-24-11c-0.5-55.1-0.5-157.3-0.4-162.9s1.3-16.6-15.1-24
			c-14.8-6.7-108.7-51.1-114.5-53.8c-7.5-3.5-13.2-17,2.2-26.3c18.3-11,109.6-64.5,115.9-69c10.6-7.5,10.6-14.8,10.7-36.8
			c0.1-24.8-1.4-346.8-1.2-352.1c0.3-8.4-0.8-15.3,13.4-24.5c16.2-10.4,33.6-21.8,39.2-25.4c9-5.8,36.4-17.3,35.9,13.8
			c-0.3,20.8-0.1,315.4,0,323.3c0.1,10.7,5.2,27.2,22.5,14.4C810.9,644.5,838.5,514.7,797,428.8C712.4,253.4,272.8,533.4,82.6,690.2
			c-29.9,24.6-29.2,13.7-29.2,1.8c-0.1-14.1,0.6-66.1,1.8-75.7c1.6-13.8,5.1-58.7,46.2-88.5c39.8-28.9,584.8-380,743.2-154.3
			c77.2,110,30.1,283.8-244.3,485.5c-16.8,12.3-19.9,16.4-19.9,38.6c0,22.2-0.5,55.9,0,62.3c0.5,6.4,1.2,19.8,14.4,26.6
			C608,993.1,885.7,1124.2,896.9,1129.6z"/>
		<path d="M1419.2,679.8c-20.2-22.6-60.6-22.3-91.8-3.1c-41.1,25.3-52,64.9-31.9,87.5c20.2,22.6,68.4,17.8,98-1.8
			C1427.4,740,1439.3,702.4,1419.2,679.8z"/>
		<path d="M1726.7,76.2c96.6,95.1-68,275.5-107.7,321.9c-17.8,20.8-34.4,51.8-6.4,81.5c28.4,30.2,58,58.1,82.4,80.6
			c30.1,27.9,21.1,80,2.1,108.2c-12.7,18.8-41,51.9-73.7,93.7c-32.8,41.9-62.5,80.1-65.8,84.3c-22.9,29.1-17.2,61.5-4.9,80.4
			c35.2,54.5,38.5,53.7,60.9,14.8c37.3-64.8,86.5-125,124-167.7c33.8-38.5,52.1-66,56.8-72.7c33.9-48.4,37.1-100,2.9-129.8
			c-45.3-39.4-97.7-73.9-141-106.9c-25-19.1-7.7-42.5,19.1-62.6c95.2-71.3,228.1-190.5,167.1-334.1
			c-59-138.9-336.5-31.7-347.8,255.6c-4,102.5,9.6,385.9,2,456.9c-4.4,41.3,11.3,36.7,26.3,30.4c13.8-5.7,66.8-31.6,64-99.1
			c-2.7-67.2-8.9-360.5-10.9-390.9C1565.9,162.6,1664,14.5,1726.7,76.2z"/>
	</g>
</g>
</svg>
