<?xml version="1.0" encoding="utf-8"?>
<!-- Generator: Adobe Illustrator 21.1.0, SVG Export Plug-In . SVG Version: 6.00 Build 0)  -->
<svg version="1.1" id="Livello_1" xmlns="http://www.w3.org/2000/svg" xmlns:xlink="http://www.w3.org/1999/xlink" x="0px" y="0px"
	    width="110"
   height="100" viewBox="0 0 2500 343" style="enable-background:new 0 0 2500 343;" xml:space="preserve">
<style type="text/css">
	.st0{fill:#231F20;}
</style>
<g>
	<g>
		<path class="st0" d="M1252.5,328.6c70.7-0.3,123.9-35.7,124-99.6c0.4-57-59.3-73.5-113.1-83.9c-44.1-8.5-83.8-24.7-84.2-62.5
			c0-1,0-2,0.1-3c2.3-29.6,36.7-45.9,68.6-46.1c30.9-0.1,53.8,13,74.6,37.5l32.2-25.4c-48-32.5-71-33.1-106.9-33.3
			c-20.1,0-50.1,4.9-74.5,18.9c-24.4,14.1-43.3,36.4-43.4,72.9c0,0.5,0,1,0,1.5c0.4,65.5,76.9,77,101.6,82
			c29.8,6.3,87.3,19.1,88,68.9c-0.5,33.3-37.4,50.9-67.3,51c0,0-0.1,0-0.4,0c-26.1,0-66.8-5.5-94.5-44.6L1122,290
			C1150.7,313.9,1184.1,328.6,1252.5,328.6"/>
	</g>
	<polygon class="st0" points="418.7,320.7 620.6,320.7 620.6,301.8 478.9,301.8 478.9,179.1 478.9,175 592.6,175 592.6,157.4 
		478.9,157.8 478.9,36.2 620.6,36.2 620.6,17.4 418.7,17.4 	"/>
	<g>
		<path class="st0" d="M1869.1,170.2c0.6,114.4,58.7,157.3,151.7,158c69.2-0.1,101.6-16.3,118.3-39c9.2-12.7,11.7-22.4,12.1-35.2
			h-40.4c-2.3,34.4-32.3,62.2-72.4,62.3c-23.9,0-50.8-3.6-71.6-23.9c-20.8-20.3-34.7-56.3-34.7-119c0-67.3,13.5-105.1,32.4-126.4
			c18.9-21.3,42.8-24.9,61-24.8c18.7,0,37.3,5.9,51.3,18.8c13.3,12.2,22.3,30.6,23.2,55.1h51.9c-2-44.7-29.8-82.7-126.4-83.2
			C1926.4,13.4,1869.7,55.7,1869.1,170.2"/>
	</g>
	<polygon class="st0" points="18,17.4 126.5,320.7 182.3,320.7 295.4,17.5 265.9,17.5 172.5,279.9 168.4,291.1 79.2,17.4 	"/>
	<g>
		<path class="st0" d="M849.5,174.3l-41.2-0.1V32h49.4c48.2,0.1,79.7,30.6,79.8,67.5C937.4,136.2,904.8,174.2,849.5,174.3
			 M869.6,187.9l81.7,132.8h61.3l-82.9-134.6l-2.6-4.3l4.7-1.7c28.2-10.3,67.2-32.6,67.2-81.8c-0.2-48.8-36.9-80.5-135.5-80.9
			l-115.2,0v303.3h60.2V187.9H869.6z"/>
	</g>
	<path class="st0" d="M1544.9,197.5l67.3-144l3.9-8.3l63,152.3H1544.9z M1685.9,214.6l43.5,106.1h56.9L1657.2,17.5h-56.2
		l-140.4,303.3h26.6l48.9-103.8l1.1-2.3H1685.9z"/>
	<polygon class="st0" points="2284,320.7 2486,320.7 2486,301.8 2344.2,301.8 2344.2,179.1 2344.2,175 2457.9,175 2457.9,157.4 
		2344.2,157.8 2344.2,36.2 2486,36.2 2486,17.5 2284,17.5 	"/>
</g>
</svg>
